<mxfile host="www.draw.io" modified="2023-04-07T00:56:00.890Z" agent="Mozilla/5.0 (X11; Linux x86_64; rv:112.0) Gecko/20100101 Firefox/112.0" etag="QsBeQSkhRNEs5cOam6Ju" version="21.1.5" type="device">
  <diagram name="Page-1" id="Xlat3UH4pcadX7JyR8fU">
    <mxGraphModel dx="1127" dy="1741" grid="1" gridSize="10" guides="1" tooltips="1" connect="1" arrows="1" fold="1" page="1" pageScale="1" pageWidth="850" pageHeight="1100" math="0" shadow="0">
      <root>
        <mxCell id="0" />
        <mxCell id="1" parent="0" />
        <mxCell id="9q4gekvxKhJ_eS_k9gng-36" value="" style="rounded=0;whiteSpace=wrap;html=1;fillColor=none;dashed=1;strokeColor=#780D01;" vertex="1" parent="1">
          <mxGeometry x="80" y="60" width="430" height="130" as="geometry" />
        </mxCell>
        <mxCell id="9q4gekvxKhJ_eS_k9gng-15" value="" style="rounded=0;whiteSpace=wrap;html=1;fillColor=none;strokeColor=#155901;dashed=1;" vertex="1" parent="1">
          <mxGeometry x="480" y="220" width="440" height="330" as="geometry" />
        </mxCell>
        <mxCell id="9q4gekvxKhJ_eS_k9gng-17" value="" style="rounded=0;whiteSpace=wrap;html=1;fillColor=none;strokeColor=#155901;dashed=1;" vertex="1" parent="1">
          <mxGeometry x="640" y="240" width="250" height="290" as="geometry" />
        </mxCell>
        <mxCell id="9q4gekvxKhJ_eS_k9gng-10" value="s4b" style="edgeStyle=orthogonalEdgeStyle;rounded=0;orthogonalLoop=1;jettySize=auto;html=1;entryX=0.5;entryY=1;entryDx=0;entryDy=0;" edge="1" parent="1" source="9q4gekvxKhJ_eS_k9gng-1" target="9q4gekvxKhJ_eS_k9gng-9">
          <mxGeometry relative="1" as="geometry" />
        </mxCell>
        <mxCell id="9q4gekvxKhJ_eS_k9gng-13" style="edgeStyle=orthogonalEdgeStyle;rounded=0;orthogonalLoop=1;jettySize=auto;html=1;entryX=0;entryY=0.5;entryDx=0;entryDy=0;exitX=0.5;exitY=1;exitDx=0;exitDy=0;" edge="1" parent="1" source="9q4gekvxKhJ_eS_k9gng-1" target="9q4gekvxKhJ_eS_k9gng-12">
          <mxGeometry relative="1" as="geometry">
            <Array as="points">
              <mxPoint x="430" y="160" />
              <mxPoint x="430" y="290" />
            </Array>
          </mxGeometry>
        </mxCell>
        <mxCell id="9q4gekvxKhJ_eS_k9gng-14" value="d1" style="edgeLabel;html=1;align=center;verticalAlign=middle;resizable=0;points=[];" vertex="1" connectable="0" parent="9q4gekvxKhJ_eS_k9gng-13">
          <mxGeometry x="0.5238" relative="1" as="geometry">
            <mxPoint as="offset" />
          </mxGeometry>
        </mxCell>
        <mxCell id="9q4gekvxKhJ_eS_k9gng-35" value="s4a" style="edgeStyle=orthogonalEdgeStyle;rounded=0;orthogonalLoop=1;jettySize=auto;html=1;exitX=0;exitY=0.25;exitDx=0;exitDy=0;entryX=1;entryY=0.417;entryDx=0;entryDy=0;entryPerimeter=0;" edge="1" parent="1" source="9q4gekvxKhJ_eS_k9gng-1" target="9q4gekvxKhJ_eS_k9gng-34">
          <mxGeometry relative="1" as="geometry">
            <Array as="points" />
          </mxGeometry>
        </mxCell>
        <mxCell id="9q4gekvxKhJ_eS_k9gng-1" value="Alessia" style="rounded=1;whiteSpace=wrap;html=1;fillColor=#f8cecc;strokeColor=#b85450;" vertex="1" parent="1">
          <mxGeometry x="360" y="100" width="120" height="60" as="geometry" />
        </mxCell>
        <mxCell id="9q4gekvxKhJ_eS_k9gng-5" style="edgeStyle=orthogonalEdgeStyle;rounded=0;orthogonalLoop=1;jettySize=auto;html=1;entryX=0.5;entryY=1;entryDx=0;entryDy=0;startArrow=classic;startFill=1;endArrow=none;endFill=0;" edge="1" parent="1">
          <mxGeometry relative="1" as="geometry">
            <mxPoint x="330" y="290" as="sourcePoint" />
            <mxPoint x="420" y="160" as="targetPoint" />
            <Array as="points">
              <mxPoint x="410" y="290" />
              <mxPoint x="410" y="160" />
            </Array>
          </mxGeometry>
        </mxCell>
        <mxCell id="9q4gekvxKhJ_eS_k9gng-7" value="s1" style="edgeLabel;html=1;align=center;verticalAlign=middle;resizable=0;points=[];" vertex="1" connectable="0" parent="9q4gekvxKhJ_eS_k9gng-5">
          <mxGeometry x="-0.0091" y="2" relative="1" as="geometry">
            <mxPoint x="-48" y="19" as="offset" />
          </mxGeometry>
        </mxCell>
        <mxCell id="9q4gekvxKhJ_eS_k9gng-6" style="edgeStyle=orthogonalEdgeStyle;rounded=0;orthogonalLoop=1;jettySize=auto;html=1;exitX=0.5;exitY=0;exitDx=0;exitDy=0;" edge="1" parent="1" source="9q4gekvxKhJ_eS_k9gng-2">
          <mxGeometry relative="1" as="geometry">
            <mxPoint x="360" y="140" as="targetPoint" />
            <Array as="points">
              <mxPoint x="270" y="140" />
              <mxPoint x="360" y="140" />
            </Array>
          </mxGeometry>
        </mxCell>
        <mxCell id="9q4gekvxKhJ_eS_k9gng-11" value="s3" style="edgeLabel;html=1;align=center;verticalAlign=middle;resizable=0;points=[];" vertex="1" connectable="0" parent="9q4gekvxKhJ_eS_k9gng-6">
          <mxGeometry x="-0.1182" y="1" relative="1" as="geometry">
            <mxPoint as="offset" />
          </mxGeometry>
        </mxCell>
        <mxCell id="9q4gekvxKhJ_eS_k9gng-31" style="edgeStyle=orthogonalEdgeStyle;rounded=0;orthogonalLoop=1;jettySize=auto;html=1;entryX=0.5;entryY=0;entryDx=0;entryDy=0;" edge="1" parent="1" source="9q4gekvxKhJ_eS_k9gng-2" target="9q4gekvxKhJ_eS_k9gng-30">
          <mxGeometry relative="1" as="geometry" />
        </mxCell>
        <mxCell id="9q4gekvxKhJ_eS_k9gng-33" value="s2" style="edgeLabel;html=1;align=center;verticalAlign=middle;resizable=0;points=[];" vertex="1" connectable="0" parent="9q4gekvxKhJ_eS_k9gng-31">
          <mxGeometry x="-0.1818" y="-2" relative="1" as="geometry">
            <mxPoint as="offset" />
          </mxGeometry>
        </mxCell>
        <mxCell id="9q4gekvxKhJ_eS_k9gng-2" value="Fast API" style="rounded=1;whiteSpace=wrap;html=1;fillColor=#fff2cc;strokeColor=#d6b656;" vertex="1" parent="1">
          <mxGeometry x="210" y="260" width="120" height="60" as="geometry" />
        </mxCell>
        <mxCell id="9q4gekvxKhJ_eS_k9gng-9" value="Discord" style="rounded=1;whiteSpace=wrap;html=1;fillColor=#e1d5e7;strokeColor=#9673a6;" vertex="1" parent="1">
          <mxGeometry x="360" y="-50" width="120" height="60" as="geometry" />
        </mxCell>
        <mxCell id="9q4gekvxKhJ_eS_k9gng-19" value="d3" style="edgeStyle=orthogonalEdgeStyle;rounded=0;orthogonalLoop=1;jettySize=auto;html=1;" edge="1" parent="1" source="9q4gekvxKhJ_eS_k9gng-12" target="9q4gekvxKhJ_eS_k9gng-16">
          <mxGeometry relative="1" as="geometry" />
        </mxCell>
        <mxCell id="9q4gekvxKhJ_eS_k9gng-25" style="edgeStyle=orthogonalEdgeStyle;rounded=0;orthogonalLoop=1;jettySize=auto;html=1;entryX=0;entryY=0.5;entryDx=0;entryDy=0;startArrow=classic;startFill=1;" edge="1" parent="1" source="9q4gekvxKhJ_eS_k9gng-12" target="9q4gekvxKhJ_eS_k9gng-21">
          <mxGeometry relative="1" as="geometry">
            <Array as="points">
              <mxPoint x="560" y="480" />
            </Array>
          </mxGeometry>
        </mxCell>
        <mxCell id="9q4gekvxKhJ_eS_k9gng-27" value="d6" style="edgeLabel;html=1;align=center;verticalAlign=middle;resizable=0;points=[];" vertex="1" connectable="0" parent="9q4gekvxKhJ_eS_k9gng-25">
          <mxGeometry x="-0.1515" y="-2" relative="1" as="geometry">
            <mxPoint as="offset" />
          </mxGeometry>
        </mxCell>
        <mxCell id="9q4gekvxKhJ_eS_k9gng-28" style="edgeStyle=orthogonalEdgeStyle;rounded=0;orthogonalLoop=1;jettySize=auto;html=1;entryX=1;entryY=0.5;entryDx=0;entryDy=0;exitX=0.5;exitY=0;exitDx=0;exitDy=0;" edge="1" parent="1" source="9q4gekvxKhJ_eS_k9gng-12" target="9q4gekvxKhJ_eS_k9gng-9">
          <mxGeometry relative="1" as="geometry" />
        </mxCell>
        <mxCell id="9q4gekvxKhJ_eS_k9gng-29" value="d7" style="edgeLabel;html=1;align=center;verticalAlign=middle;resizable=0;points=[];" vertex="1" connectable="0" parent="9q4gekvxKhJ_eS_k9gng-28">
          <mxGeometry x="-0.1167" relative="1" as="geometry">
            <mxPoint as="offset" />
          </mxGeometry>
        </mxCell>
        <mxCell id="9q4gekvxKhJ_eS_k9gng-32" value="d2" style="edgeStyle=orthogonalEdgeStyle;rounded=0;orthogonalLoop=1;jettySize=auto;html=1;exitX=0.5;exitY=1;exitDx=0;exitDy=0;entryX=1;entryY=0.5;entryDx=0;entryDy=0;" edge="1" parent="1" source="9q4gekvxKhJ_eS_k9gng-12" target="9q4gekvxKhJ_eS_k9gng-30">
          <mxGeometry relative="1" as="geometry">
            <Array as="points">
              <mxPoint x="540" y="320" />
              <mxPoint x="540" y="440" />
            </Array>
          </mxGeometry>
        </mxCell>
        <mxCell id="9q4gekvxKhJ_eS_k9gng-12" value="api.soc.lockness.pro" style="rounded=1;whiteSpace=wrap;html=1;fillColor=#d5e8d4;strokeColor=#82b366;" vertex="1" parent="1">
          <mxGeometry x="500" y="260" width="120" height="60" as="geometry" />
        </mxCell>
        <mxCell id="9q4gekvxKhJ_eS_k9gng-22" style="edgeStyle=orthogonalEdgeStyle;rounded=0;orthogonalLoop=1;jettySize=auto;html=1;entryX=1;entryY=0.5;entryDx=0;entryDy=0;endArrow=classic;endFill=1;" edge="1" parent="1" source="9q4gekvxKhJ_eS_k9gng-16" target="9q4gekvxKhJ_eS_k9gng-20">
          <mxGeometry relative="1" as="geometry" />
        </mxCell>
        <mxCell id="9q4gekvxKhJ_eS_k9gng-23" style="edgeStyle=orthogonalEdgeStyle;rounded=0;orthogonalLoop=1;jettySize=auto;html=1;entryX=1;entryY=0.5;entryDx=0;entryDy=0;endArrow=classic;endFill=1;" edge="1" parent="1" source="9q4gekvxKhJ_eS_k9gng-16" target="9q4gekvxKhJ_eS_k9gng-21">
          <mxGeometry relative="1" as="geometry">
            <Array as="points">
              <mxPoint x="790" y="340" />
              <mxPoint x="870" y="340" />
              <mxPoint x="870" y="480" />
            </Array>
          </mxGeometry>
        </mxCell>
        <mxCell id="9q4gekvxKhJ_eS_k9gng-24" value="d4" style="edgeLabel;html=1;align=center;verticalAlign=middle;resizable=0;points=[];" vertex="1" connectable="0" parent="9q4gekvxKhJ_eS_k9gng-23">
          <mxGeometry x="0.4261" y="1" relative="1" as="geometry">
            <mxPoint as="offset" />
          </mxGeometry>
        </mxCell>
        <mxCell id="9q4gekvxKhJ_eS_k9gng-16" value="pve" style="rounded=1;whiteSpace=wrap;html=1;fillColor=#d5e8d4;strokeColor=#82b366;" vertex="1" parent="1">
          <mxGeometry x="730" y="260" width="120" height="60" as="geometry" />
        </mxCell>
        <mxCell id="9q4gekvxKhJ_eS_k9gng-26" value="d5" style="edgeStyle=orthogonalEdgeStyle;rounded=0;orthogonalLoop=1;jettySize=auto;html=1;entryX=0.5;entryY=0;entryDx=0;entryDy=0;" edge="1" parent="1" source="9q4gekvxKhJ_eS_k9gng-20" target="9q4gekvxKhJ_eS_k9gng-21">
          <mxGeometry relative="1" as="geometry" />
        </mxCell>
        <mxCell id="9q4gekvxKhJ_eS_k9gng-20" value="&lt;div&gt;windows-vm&lt;/div&gt;" style="rounded=1;whiteSpace=wrap;html=1;fillColor=#d5e8d4;strokeColor=#82b366;" vertex="1" parent="1">
          <mxGeometry x="730" y="350" width="120" height="60" as="geometry" />
        </mxCell>
        <mxCell id="9q4gekvxKhJ_eS_k9gng-21" value="gateway-vm" style="rounded=1;whiteSpace=wrap;html=1;fillColor=#d5e8d4;strokeColor=#82b366;" vertex="1" parent="1">
          <mxGeometry x="730" y="450" width="120" height="60" as="geometry" />
        </mxCell>
        <mxCell id="9q4gekvxKhJ_eS_k9gng-30" value="pypi" style="rounded=1;whiteSpace=wrap;html=1;fillColor=#dae8fc;strokeColor=#6c8ebf;" vertex="1" parent="1">
          <mxGeometry x="210" y="410" width="120" height="60" as="geometry" />
        </mxCell>
        <mxCell id="9q4gekvxKhJ_eS_k9gng-34" value="Postgres DB" style="rounded=1;whiteSpace=wrap;html=1;fillColor=#f8cecc;strokeColor=#b85450;" vertex="1" parent="1">
          <mxGeometry x="100" y="90" width="120" height="60" as="geometry" />
        </mxCell>
        <mxCell id="9q4gekvxKhJ_eS_k9gng-37" value="VPS" style="text;html=1;align=center;verticalAlign=middle;resizable=0;points=[];autosize=1;strokeColor=none;fillColor=none;fontStyle=1" vertex="1" parent="1">
          <mxGeometry x="270" y="70" width="50" height="30" as="geometry" />
        </mxCell>
        <mxCell id="9q4gekvxKhJ_eS_k9gng-38" value="lockness&#39; home lab" style="text;html=1;align=center;verticalAlign=middle;resizable=0;points=[];autosize=1;strokeColor=none;fillColor=none;fontStyle=1" vertex="1" parent="1">
          <mxGeometry x="500" y="500" width="130" height="30" as="geometry" />
        </mxCell>
        <mxCell id="9q4gekvxKhJ_eS_k9gng-39" value="" style="rounded=0;whiteSpace=wrap;html=1;dashed=1;fillColor=none;strokeColor=#AB9A00;" vertex="1" parent="1">
          <mxGeometry x="190" y="220" width="160" height="120" as="geometry" />
        </mxCell>
        <mxCell id="9q4gekvxKhJ_eS_k9gng-40" value="Azure" style="text;html=1;align=center;verticalAlign=middle;resizable=0;points=[];autosize=1;strokeColor=none;fillColor=none;fontStyle=1" vertex="1" parent="1">
          <mxGeometry x="240" y="220" width="60" height="30" as="geometry" />
        </mxCell>
      </root>
    </mxGraphModel>
  </diagram>
</mxfile>
